<?xml version="1.0" encoding="utf-8"?>
<!-- Generator: Adobe Illustrator 23.1.1, SVG Export Plug-In . SVG Version: 6.00 Build 0)  -->
<svg version="1.1" id="Layer_1" xmlns="http://www.w3.org/2000/svg" xmlns:xlink="http://www.w3.org/1999/xlink" x="0px" y="0px"
	 viewBox="0 0 100 100" style="enable-background:new 0 0 100 100;" xml:space="preserve">
<style type="text/css">
	.st0{fill-rule:evenodd;clip-rule:evenodd;fill:#FFEF00;}
	.st1{enable-background:new    ;}
</style>
<title>Logo</title>
<desc>Created with Sketch.</desc>
<g id="Page-1">
	<g id="Home-Page-Measurments" transform="translate(-1144.000000, -876.000000)">
		<g id="Content" transform="translate(144.000000, 62.000000)">
			<g id="Logo" transform="translate(1000.000000, 814.000000)">
				<g id="Oval">
					<circle class="st0" cx="50" cy="50" r="50"/>
				</g>
				<g id="Letters" transform="translate(9.915874, 8.673611)">
					<g class="st1">
						<path d="M24.1,13.7c0,0-0.1,0-0.1,0l-5.8-2.5l2.5,4c1.7,2.7,2.3,2.4,2.9,2l0.2-0.1c0.1,0,0.1,0.1,0.1,0.1
							c-0.3,0.2-1.3,0.8-1.5,0.9c-0.2,0.1-0.6,0.4-0.9,0.6c-0.1,0-0.2,0-0.1-0.1l0.1,0c0.5-0.3,0.7-0.6-0.9-3.3
							c-0.8-1.3-2-3.2-2.4-3.8c-0.1-0.2-0.3-0.3-0.4-0.4c-0.3-0.1-0.7-0.1-1,0l-0.1,0c-0.1,0-0.1,0-0.1-0.1c1.1-0.7,1.3-0.9,1.4-1
							c0.1,0,0.1,0,0.2,0c0.2,0.1,0.6,0.3,0.9,0.4l5.1,2.3l0.1-4.9c0-1.1-0.1-1.6,0.1-1.7c0.2-0.1,1.1-0.6,1.3-0.7
							c0.1-0.1,0.1,0,0.1,0.1l-0.2,0.1C25,5.9,25,6,26.7,8.7l1.2,1.9c1.7,2.7,1.8,2.7,2.3,2.4l0.2-0.1c0.1-0.1,0.2,0,0.1,0.1
							c-0.3,0.2-1,0.6-1.2,0.7c-0.2,0.1-0.9,0.6-1.2,0.8c-0.1,0.1-0.2,0-0.1-0.1l0.2-0.1c0.5-0.3,0.6-0.4-1.1-3.1l-2.4-3.9
							c-0.3-0.4-0.2-0.1-0.2,0.6l-0.1,5.7C24.3,13.6,24.3,13.6,24.1,13.7L24.1,13.7z"/>
					</g>
					<g class="st1">
						<path d="M33.9,8.8l0.1,0.7c0.6,3.1,0.7,3.2,1.3,3.1l0.2,0c0.1,0,0.1,0.1,0,0.1c-0.4,0.1-1.2,0.2-1.4,0.2c-0.2,0-1,0.2-1.4,0.3
							c-0.1,0-0.1-0.1,0-0.1l0.2,0c0.6-0.1,0.7-0.2,0.1-3.3L33,9l-1.9-2.2c-1.3-1.6-1.7-2-2.4-1.9l-0.1,0c-0.1,0-0.1,0-0.1,0
							c0,0,0-0.1,0.1-0.1c0.4-0.1,1.1-0.2,1.3-0.2c0.2,0,1.2-0.3,1.5-0.3c0.1,0,0.2,0.1,0.1,0.1l-0.3,0.1c-0.6,0.1-0.3,0.6,1,2.2
							l1.6,2L34.7,6c0.2-0.6,0.7-2.4-0.6-2.2C34,3.9,33.9,4,33.8,4c-0.1,0-0.1,0-0.1-0.1c0,0,0-0.1,0.1-0.1c0.2,0,1.1-0.2,1.3-0.2
							c0.2,0,1.1-0.2,1.4-0.3c0.1,0,0.1,0.1,0,0.1l0,0c-0.7,0.1-1.5,2.1-1.7,2.6L33.9,8.8z"/>
					</g>
					<g class="st1">
						<path d="M41.8,6.7L40,6.3L40.5,5l1.5,1c-0.2,0.1-0.2,0.3-0.3,0.5C41.8,6.6,41.8,6.6,41.8,6.7z M42.3,7.2l-0.9,1.6l-1-0.9
							l1.5-1.2C41.9,7,42.1,7.2,42.3,7.2z M42,4.2l1.4,0.1l-0.5,1.8C42.7,6,42.6,6,42.5,6S42.3,6,42.2,6L42,4.2z M43,6.9l1.2,1.4
							L43.1,9l-0.6-1.8C42.7,7.2,42.9,7.1,43,6.9z M42.9,6.2l1.7-0.8l0.3,1.3l-1.9,0.1c0-0.1,0-0.1,0-0.1C43.1,6.5,43,6.3,42.9,6.2z
							"/>
					</g>
					<g class="st1">
						<path d="M49.7,4.5C49.6,4.4,49.7,4.3,49.7,4.5C51,4.8,51.5,5,51.6,5c0.1,0,0.1,0.1,0.1,0.1c0,0.2,0.1,0.5,0.2,0.8l2.8,8.2
							l1.4-3.8c1.1-3,0.3-3.3-0.3-3.6l-0.2-0.1c-0.1,0-0.1-0.1,0-0.1c0.4,0.1,1.4,0.6,1.6,0.6c0.2,0.1,0.6,0.2,1,0.3
							c0.1,0,0.1,0.1,0,0.1l-0.1,0c-0.6-0.2-0.8-0.2-1.9,2.8l-1.9,5.2c0,0.1-0.1,0.1-0.1,0.1c-0.1,0-0.2-0.2-0.2-0.4l-3.2-9.5
							l-1.6,4.4c-1.1,3-0.4,3.3,0.2,3.5l0.2,0.1c0.1,0,0,0.1,0,0.1c-0.4-0.1-1.4-0.6-1.6-0.6c-0.2-0.1-0.7-0.2-1-0.3
							c-0.1,0-0.1-0.1,0.1-0.1l0.1,0c0.6,0.2,1,0.2,2-2.7l1.6-4.4c0-0.1,0-0.3-0.1-0.5C50.4,4.9,50.2,4.6,49.7,4.5L49.7,4.5z"/>
					</g>
					<g class="st1">
						<path d="M61.1,17.5c-0.5-0.4-1.4-1.3-1.7-1.6l-0.5,0.3c-0.5,0.3-1.3,0.7-1.6,1.1c-0.3,0.3-0.2,0.6,0.1,1
							c0.1,0.1,0.3,0.2,0.3,0.2c0,0,0.1,0.1,0,0.1c0,0-0.1,0-0.2,0c-0.2-0.2-0.9-0.9-1.1-1c-0.1-0.1-0.6-0.5-0.8-0.7
							c0,0,0-0.1,0-0.1c0,0,0.1,0,0.1,0l0,0c0.3,0.2,0.7,0.2,1.2,0c0.6-0.2,1.4-0.5,1.9-0.8l6.1-3c0,0,0,0,0.1,0l0.1,0.1
							c0.1,0.1,0.1,0.1,0.1,0.1l-2,5.8c-1.1,3.1-1.1,3.4-0.6,3.8l0.1,0.1c0,0,0,0.1,0,0.1c0,0-0.1,0-0.1,0c-0.3-0.3-0.8-0.8-1-0.9
							s-0.9-0.8-1.2-1c-0.1-0.1,0-0.2,0-0.1l0.2,0.2c0.4,0.4,0.6,0.3,1.7-2.7L61.1,17.5z M63.9,13.7l-4.4,2.2l1.7,1.5l1.1,1l0,0
							L63.9,13.7z"/>
					</g>
					<g class="st1">
						<path d="M67.4,26.8c0,0,0-0.1,0-0.1l3.3-5.4l-4.3,1.9c-2.9,1.3-2.7,2-2.4,2.6l0.1,0.2c0,0.1-0.1,0.1-0.1,0
							c-0.2-0.3-0.6-1.4-0.7-1.6c-0.1-0.2-0.3-0.6-0.5-0.9c0-0.1,0.1-0.1,0.1,0l0,0.1c0.2,0.5,0.5,0.8,3.4-0.4
							c1.4-0.6,3.4-1.5,4.1-1.8c0.2-0.1,0.4-0.2,0.4-0.4c0.1-0.3,0.2-0.7,0.1-1l0-0.1c0-0.1,0.1-0.1,0.1,0c0.5,1.2,0.7,1.4,0.8,1.5
							c0,0.1,0,0.1,0,0.2c-0.1,0.2-0.4,0.5-0.5,0.8l-2.9,4.7l4.8,0.7c1.1,0.2,1.6,0.1,1.7,0.4c0.1,0.2,0.4,1.2,0.5,1.4
							c0,0.1-0.1,0.1-0.1,0l-0.1-0.2C75,28.7,74.9,28.7,72,30l-2.1,0.9c-2.9,1.3-2.9,1.4-2.7,2l0.1,0.2c0,0.1-0.1,0.1-0.1,0
							c-0.1-0.3-0.5-1.1-0.5-1.3c-0.1-0.2-0.5-1-0.6-1.3c0-0.1,0.1-0.1,0.1,0l0.1,0.2c0.3,0.6,0.3,0.6,3.3-0.7l4.2-1.9
							c0.5-0.2,0.2-0.2-0.5-0.3L67.6,27c-0.1,0-0.1,0-0.1-0.1L67.4,26.8z"/>
					</g>
					<g class="st1">
						<path d="M73.6,36.3l0.1,1.1c0.1,1.6,0.7,1.9,1.6,1.9l0.3,0c0.1,0,0.1,0.1,0,0.1c-0.4,0-1.7,0.1-1.8,0.1
							c-0.2,0-1.6,0.2-1.8,0.2c-0.1,0-0.1-0.1,0-0.1l0.2,0c0.9-0.1,1.5-0.5,1.4-2.1l-0.1-1.1L71,36.5c-1,0.1-1.7,0.1-1.9,0
							c0,0.4,0.1,2.1,0.1,2.5c0.1,1.5,1.5,2.5,2.8,2.6l0.7,0c0.1,0,0.1,0.1,0,0.1l-0.7,0c-2.1-0.1-2.6-0.1-2.7-0.2
							c-0.1,0-0.1-0.8-0.2-1.7c-0.1-0.9-0.2-3.3-0.2-3.3l-0.2-1.8c0-0.1,0.1-0.1,0.1,0c0.1,0.8,0.2,0.9,1.8,0.9
							c0.9,0,2.6-0.1,3.8-0.2c3.2-0.2,3.2-0.3,3.2-1l0-0.2c0-0.1,0.1-0.1,0.1,0c0,0.4,0,1.2,0.1,1.4c0,0.2,0.3,4.1,0.4,4.6
							c0,0.2,0,0.5,0,0.6c0,0.1-1,0.2-2.4,0.5l-0.5,0.1c-0.1,0-0.1-0.1,0-0.1l0.5-0.1c1.4-0.3,2.2-1.4,2.1-2.9l-0.1-1.6
							c0-0.6,0-0.5-3.2-0.3L73.6,36.3z"/>
					</g>
					<g class="st1">
						<path d="M72.6,56.2c2.7,1.7,2.8,1.7,3.1,1.2l0.1-0.2c0.1-0.1,0.2,0,0.1,0.1c-0.2,0.3-0.7,1.1-0.8,1.2
							c-0.1,0.2-0.6,0.9-0.8,1.3c-0.1,0.1-0.2,0-0.1-0.1l0.1-0.2c0.3-0.5,0.3-0.6-2.3-2.4l-1.9-1.2c-2.7-1.7-2.8-1.7-3.1-1.2
							l-0.1,0.2c-0.1,0.1-0.2,0-0.1-0.1c0.2-0.3,0.7-1,0.8-1.2c0.1-0.2,0.6-1,0.8-1.3c0.1-0.1,0.2,0,0.1,0.1l-0.1,0.2
							c-0.3,0.5-0.3,0.6,2.3,2.4L72.6,56.2z"/>
					</g>
					<g class="st1">
						<path d="M74.1,49.1l-1.5,1l-0.5-1.3l1.8-0.4C73.9,48.7,74,48.9,74.1,49.1z M73.9,48.3l-1.5-1.2l1-0.9l0.9,1.6
							C74.2,48,74,48.1,73.9,48.3z M74.9,49.1l0.5,1.8L74.1,51l0.2-1.9c0.1,0,0.1,0,0.1,0C74.6,49.2,74.7,49.2,74.9,49.1z
							 M74.5,47.9l0.6-1.7l1.2,0.7l-1.2,1.4c-0.1-0.2-0.3-0.3-0.4-0.3C74.6,47.9,74.6,47.9,74.5,47.9z M77,48.4l-0.3,1.3L75,49
							c0.1-0.1,0.1-0.2,0.2-0.3c0-0.1,0-0.2,0-0.3L77,48.4z"/>
					</g>
					<g class="st1">
						<path d="M67.3,68.1c-0.1,0-0.1,0.1-0.2,0c-0.2-0.2-0.7-0.9-2.1-2.3c-0.1-0.1,0-0.2,0.1-0.1c1.4,1.5,2.7,2.3,4.4,0.6
							c1.1-1.1,1.1-2.1,0.4-2.8c-0.9-0.9-2.2-0.4-3.6,0.2c-1.4,0.5-2.8,1.1-3.7,0c-1-1.1-0.8-2.7,0.3-3.8c1-1,1.6-1.4,2.4-1.8
							c0.1-0.1,0.1-0.1,0.2,0c0.4,0.4,1.9,1.9,2.3,2.4c0.1,0.1,0,0.2-0.1,0.1c-1.7-1.7-3.2-2.1-4.8-0.6c-1,1-1,2-0.3,2.7
							c0.9,0.9,2.2,0.4,3.5-0.1c1.4-0.6,2.8-1.1,3.8-0.1c1.1,1.1,0.7,2.7-0.5,3.9C68.7,67.3,68,67.7,67.3,68.1z"/>
					</g>
					<g class="st1">
						<path d="M59.3,70.2l-1.7-0.8l0.8-1.1l1.3,1.4C59.5,69.7,59.3,69.9,59.3,70.2z M59.7,70.8l-1.3,1.4l-0.8-1.1l1.7-0.8
							c0,0.1,0,0.1,0,0.1C59.4,70.6,59.5,70.7,59.7,70.8z M61.3,72.3L60,72.7l-0.2-1.8c0.1,0,0.2,0,0.3,0c0.1,0,0.2-0.1,0.3-0.2
							L61.3,72.3z M59.8,69.6l0.2-1.9l1.3,0.4l-0.9,1.6C60.2,69.6,60,69.6,59.8,69.6z M60.5,69.9l1.8-0.4l0,1.4l-1.8-0.4
							c0.1-0.2,0.1-0.4,0-0.5C60.5,70,60.5,69.9,60.5,69.9z"/>
					</g>
					<g class="st1">
						<path d="M49.8,72.3c0,0,0.1,0,0.1,0.1l4.8,4.1L53.5,72c-0.8-3.1-1.5-3-2.2-2.8l-0.2,0c-0.1,0-0.1-0.1,0-0.1
							c0.4-0.1,1.5-0.4,1.7-0.4c0.2-0.1,0.7-0.2,1-0.3c0.1,0,0.1,0.1,0,0.1l-0.1,0c-0.6,0.2-0.9,0.4-0.1,3.4c0.4,1.4,1,3.6,1.1,4.3
							c0.1,0.2,0.2,0.4,0.3,0.5c0.3,0.2,0.6,0.3,0.9,0.3l0.1,0c0.1,0,0.1,0.1,0,0.1c-1.3,0.3-1.5,0.5-1.6,0.5c-0.1,0-0.1,0-0.1,0
							c-0.1-0.1-0.5-0.4-0.7-0.6l-4.2-3.6L48,78c-0.3,1.1-0.4,1.5-0.6,1.6c-0.2,0-1.3,0.2-1.5,0.3c-0.1,0-0.1-0.1,0-0.1l0.2,0
							c0.6-0.2,0.7-0.2-0.2-3.3l-0.6-2.2c-0.8-3.1-0.9-3.1-1.5-3l-0.2,0c-0.1,0-0.1-0.1,0-0.1c0.4-0.1,1.2-0.3,1.4-0.3
							c0.2-0.1,1-0.3,1.4-0.4c0.1,0,0.1,0.1,0,0.1l-0.3,0.1c-0.6,0.2-0.7,0.2,0.2,3.3l1.2,4.4c0.1,0.5,0.2,0.2,0.4-0.5l1.7-5.4
							c0-0.1,0-0.1,0.1-0.1L49.8,72.3z"/>
					</g>
					<g class="st1">
						<path d="M39.6,76.8c-0.5,3.2-0.4,3.2,0.2,3.3l0.3,0c0.1,0,0.1,0.1,0,0.1c-0.4-0.1-1.3-0.2-1.5-0.3c-0.2,0-1.1-0.1-1.5-0.2
							c-0.1,0-0.1-0.1,0-0.1l0.3,0c0.6,0.1,0.7,0.1,1.2-3.1l0.4-2.2c0.5-3.2,0.4-3.2-0.2-3.3l-0.3,0c-0.1,0-0.1-0.1,0-0.1
							c0.4,0.1,1.3,0.2,1.4,0.3c0.2,0,1.1,0.1,1.5,0.2c0.1,0,0.1,0.1,0,0.1l-0.3,0c-0.6-0.1-0.7-0.1-1.2,3.1L39.6,76.8z"/>
					</g>
					<g class="st1">
						<path d="M31.5,70c-2-0.8-3.5,0-4.5,1.9l-0.1,0l1.3-2.7c0.8,0,2,0.2,3.3,0.8c2.6,1.1,3.8,3.7,2.7,6.2c-1.1,2.5-3.9,3.4-6.4,2.3
							c-1-0.4-2.2-1.2-2.8-1.8l1-2.7l0.1,0c-0.6,2-0.1,3.5,1.7,4.3c2.2,0.9,4.2-0.2,5.3-2.7C34.2,73.2,33.7,71,31.5,70z"/>
					</g>
					<g class="st1">
						<path d="M23.6,72.4c-1.7,2.7-1.7,2.8-1.2,3.1l0.1,0.1c0.1,0.1,0,0.2-0.1,0.1c-0.3-0.2-1-0.7-1.1-0.8c-0.2-0.1-0.9-0.6-1.2-0.8
							c-0.1-0.1,0-0.2,0.1-0.1l0.2,0.1c0.5,0.3,0.6,0.3,2.4-2.3l0.6-0.9l-2-1.3l-1.9-1.3l-0.6,0.9c-1.7,2.7-1.7,2.8-1.2,3.1l0.2,0.1
							c0.1,0.1,0,0.2-0.1,0.1c-0.3-0.2-1-0.7-1.2-0.8s-0.9-0.5-1.2-0.7c-0.1-0.1,0-0.2,0.1-0.1l0.2,0.1c0.5,0.3,0.6,0.3,2.3-2.3
							l1.2-1.9c1.7-2.7,1.7-2.8,1.2-3.1l-0.2-0.1c-0.1-0.1,0-0.2,0.1-0.1c0.3,0.2,1,0.7,1.2,0.8c0.2,0.1,0.9,0.6,1.2,0.8
							c0.1,0.1,0,0.2-0.1,0.1l-0.2-0.1c-0.5-0.3-0.6-0.3-2.4,2.3l-0.6,0.9l1.9,1.2c0.8,0.5,1.6,1.1,2,1.3L24,70
							c1.7-2.7,1.7-2.8,1.2-3.1L25,66.7c-0.1-0.1,0-0.2,0.1-0.1c0.3,0.2,1,0.7,1.2,0.8c0.2,0.1,0.9,0.5,1.2,0.7
							c0.1,0.1,0,0.2-0.1,0.1l-0.1-0.1c-0.5-0.3-0.6-0.3-2.4,2.3L23.6,72.4z"/>
					</g>
					<g class="st1">
						<path d="M13.2,62.2l-0.6-0.9c-0.9-1.4-1.6-1.4-2.3-0.9l-0.2,0.1c-0.1,0.1-0.2-0.1-0.1-0.1c0.3-0.2,1.4-0.8,1.6-0.9
							c0.2-0.1,1.3-0.9,1.5-1c0.1-0.1,0.2,0.1,0.1,0.1L13,58.7c-0.8,0.5-1.1,1.1-0.2,2.5l0.6,0.9l2.1-1.3c0.8-0.5,1.5-0.9,1.7-0.9
							c-0.2-0.3-1.1-1.8-1.3-2.1c-0.8-1.3-2.5-1.5-3.7-0.9l-0.6,0.3c-0.1,0-0.1-0.1-0.1-0.1l0.6-0.3c1.9-0.9,2.4-1.1,2.5-1.1
							c0.1,0,0.5,0.7,1,1.4c0.5,0.8,1.7,2.8,1.7,2.8l1,1.5c0.1,0.1,0,0.2-0.1,0c-0.4-0.6-0.5-0.7-2,0.1c-0.8,0.4-2.3,1.3-3.3,2
							c-2.7,1.7-2.7,1.8-2.4,2.4l0.1,0.2c0.1,0.1,0,0.2-0.1,0.1c-0.2-0.3-0.6-1.1-0.7-1.2c-0.1-0.2-2.2-3.5-2.5-3.9
							c-0.1-0.2-0.3-0.5-0.3-0.5c0-0.1,0.7-0.7,1.8-1.6l0.4-0.3c0.1-0.1,0.1,0,0.1,0.1L9.1,59c-1.1,1-1.3,2.3-0.5,3.5L9.5,64
							c0.3,0.5,0.3,0.4,3-1.3L13.2,62.2z"/>
					</g>
					<g class="st1">
						<path d="M10.6,52.1c0.9-0.3,1.6-0.5,1.8-0.5c-0.1-0.4-0.6-2-0.8-2.4c-0.5-1.4-2.4-1.8-3.7-1.6l-1.2,0.3c-0.1,0-0.1-0.1,0-0.1
							L8,47.5c2.1-0.5,2.9-0.6,3-0.6c0.1,0,0.3,0.8,0.6,1.6c0.3,0.9,1,3.1,1,3.1l0.6,1.7c0,0.1,0,0.2-0.1,0c-0.2-0.7-0.4-0.8-2-0.4
							c-0.9,0.2-2.5,0.9-3.1,1.1c-0.6,0.2-1.8,0.7-2.4,0.9c-1.1,0.4-1.1,0.4-0.8,1.2c0,0.1-0.1,0.1-0.1,0s-0.4-1.3-0.5-1.5
							c-0.1-0.2-0.4-1.1-0.5-1.5c0-0.1,0.1-0.1,0.1,0l0.1,0.3c0.3,0.8,0.4,0.8,3.4-0.2L10.6,52.1z"/>
					</g>
					<g class="st1">
						<path d="M8.7,42.4c1,0.1,1.7,0.2,1.9,0.3c0-0.4,0.2-2.1,0.3-2.5c0.1-1.5-1.4-2.7-2.7-2.9L7,37c-0.1,0-0.1-0.2,0-0.1l1.2,0.2
							c2.1,0.4,2.9,0.6,3,0.7c0,0.1,0,0.8-0.1,1.7c-0.1,0.9-0.3,3.2-0.3,3.2l-0.1,1.8c0,0.1-0.1,0.1-0.1,0c0.1-0.8,0-0.9-1.6-1.1
							c-0.9-0.1-2.7-0.2-3.3-0.3C5.1,43.1,3.8,43,3.1,43c-1.2-0.1-1.2-0.1-1.3,0.8c0,0.1-0.1,0.1-0.1,0c0-0.1,0.1-1.4,0.2-1.6
							c0-0.2,0.1-1.2,0.1-1.6c0-0.1,0.1-0.1,0.1,0l0,0.4c-0.1,0.9,0,0.9,3.2,1.2L8.7,42.4z"/>
					</g>
					<g class="st1">
						<path d="M7.6,31.8l0.4-1c0.6-1.5,0.1-2.1-0.7-2.4L7,28.4c-0.1,0-0.1-0.2,0-0.1c0.4,0.1,1.5,0.6,1.7,0.7
							c0.2,0.1,1.5,0.5,1.7,0.5c0.1,0,0.1,0.2,0,0.1l-0.2-0.1c-0.8-0.3-1.5-0.2-2.1,1.3l-0.4,1l2.3,0.9c0.9,0.3,1.6,0.6,1.8,0.8
							c0.1-0.4,0.7-1.9,0.9-2.3c0.5-1.4-0.3-2.9-1.5-3.5l-0.6-0.3c-0.1,0,0-0.2,0.1-0.1l0.6,0.3c1.9,0.9,2.3,1.2,2.4,1.3
							c0,0.1-0.2,0.8-0.5,1.6c-0.3,0.9-1.2,3.1-1.2,3.1l-0.6,1.7c0,0.1-0.1,0.1-0.1,0c0.3-0.7,0.2-0.9-1.3-1.5
							c-0.8-0.4-2.5-0.9-3.6-1.4c-3-1.1-3.1-1-3.3-0.4L3,32.3c0,0.1-0.1,0.1-0.1,0c0.1-0.3,0.5-1.2,0.5-1.3C3.5,30.7,4.8,27,5,26.6
							c0.1-0.2,0.2-0.5,0.3-0.6c0.1,0,1,0.2,2.4,0.5l0.5,0.1c0.1,0,0,0.1,0,0.1l-0.5-0.1C6.1,26.4,5,27,4.5,28.4L3.9,30
							c-0.2,0.6-0.2,0.5,2.8,1.6L7.6,31.8z"/>
					</g>
					<g class="st1">
						<path d="M10.1,20.7L8.8,22L8,20.9l1.7-0.7c0,0.2,0.1,0.4,0.3,0.5C10,20.7,10.1,20.7,10.1,20.7z M8.1,19.2L9,18.1l1.2,1.4
							c-0.1,0.1-0.2,0.1-0.3,0.2c-0.1,0.1-0.1,0.2-0.1,0.3L8.1,19.2z M10.9,20.6l0.8,1.7l-1.3,0.4l-0.1-1.9
							C10.5,20.8,10.7,20.8,10.9,20.6z M10.3,19.5l0.3-1.8l1.3,0.5l-1,1.6c0,0-0.1-0.1-0.1-0.1C10.7,19.5,10.5,19.5,10.3,19.5z
							 M11,19.8l1.8-0.3l-0.1,1.4l-1.8-0.5C11.1,20.3,11.1,20.1,11,19.8z"/>
					</g>
				</g>
				<g class="st1">
					<path d="M36.6,49.4c1.1,0,2,0.4,2.7,1.1s1.1,1.7,1.1,2.7s-0.4,2-1.1,2.7s-1.7,1.1-2.7,1.1c-1.1,0-2-0.4-2.7-1.1
						s-1.1-1.7-1.1-2.7c0-1.1,0.4-2,1.1-2.7C34.6,49.8,35.5,49.4,36.6,49.4z M36.6,53.2V50c-0.9,0-1.6,0.3-2.3,0.9
						c-0.6,0.6-0.9,1.4-0.9,2.3H36.6z"/>
					<path d="M55.8,51c0,1.8-0.5,3.4-1.5,4.8s-2.5,2.5-4.5,3.3L49,57.7c1.7-0.6,3-1.5,4-2.5c1-1,1.4-2.7,1.4-5.2h-6.8v3.2H46v-4.6
						h9.4l0.4,0.4V51z"/>
					<path d="M65.4,49.4c1.1,0,2,0.4,2.7,1.1c0.8,0.8,1.1,1.7,1.1,2.7s-0.4,2-1.1,2.7c-0.8,0.8-1.7,1.1-2.7,1.1
						c-1.1,0-2-0.4-2.7-1.1c-0.8-0.8-1.1-1.7-1.1-2.7c0-1.1,0.4-2,1.1-2.7C63.4,49.8,64.3,49.4,65.4,49.4z M65.4,53.2V50
						c-0.9,0-1.6,0.3-2.3,0.9c-0.6,0.6-0.9,1.4-0.9,2.3H65.4z"/>
				</g>
			</g>
		</g>
	</g>
</g>
</svg>
